<svg width="616" height="601" viewBox="0 0 616 601" fill="none" xmlns="http://www.w3.org/2000/svg">
<path d="M8.17712 153.687C-34.7781 -1.96942 124.344 -17.8133 239.177 29.1867C306.177 53.3582 350.177 -21.8133 433.177 8.18666C516.177 38.1867 416.678 132.687 543.678 181.187C670.678 229.687 608.677 446.687 497.677 449.187C386.677 451.687 417.177 488.187 306.177 571.687C195.177 655.187 8.17738 539.187 54.6773 416.687C101.177 294.187 54.6768 322.187 8.17712 153.687Z" stroke="#222222" stroke-width="1.5"/>
<path d="M247.075 274.825C242.119 260 265.333 236.083 284 246.29C301.093 255.637 318.5 249.333 330 253.5C360.275 264.47 349.139 270.277 362.673 283.305C379.141 299.16 387 340.675 349.139 340.675C318 340.675 327.317 355.799 304 362.5C280.683 369.201 254.24 357.794 254.24 327.763C254.24 316.485 255.33 299.517 247.075 274.825Z" stroke="#222222" stroke-width="1.5"/>
<path d="M29.8921 163.943C-9.60862 21.0895 137.158 4.51172 243.249 48.1669C305.712 70.9907 347.295 2.07989 423.795 29.7314C502.001 58.0014 410.535 144.438 527.22 189.714C644.171 235.246 588.522 436.293 484.171 438.565C380.431 440.838 409.005 475.395 305.976 551.913C202.948 628.432 30.5436 521.94 72.8163 407.846C115.089 295.457 72.915 319.369 29.8921 163.943Z" stroke="#222222" stroke-width="1.5"/>
<path d="M51.6072 174.2C15.5609 44.1494 149.973 26.8377 247.321 67.148C305.247 88.6241 344.412 25.974 414.412 51.2771C487.826 77.8171 404.392 156.191 510.762 198.242C617.665 240.806 568.366 425.9 470.664 427.945C374.185 429.991 400.833 462.604 305.775 532.141C210.718 601.677 52.91 504.694 90.9554 399.007C129.001 296.729 91.1533 316.553 51.6072 174.2Z" stroke="#222222" stroke-width="1.5"/>
<path d="M73.3225 184.457C40.7306 67.2098 162.787 49.1642 251.393 86.1297C304.782 106.258 341.529 49.8687 405.029 72.8234C473.65 97.6334 398.249 167.944 494.304 206.77C591.159 246.367 548.211 415.507 457.158 417.325C367.938 419.144 392.661 449.814 305.575 512.369C218.488 574.924 75.2765 487.449 109.095 390.168C142.913 298.001 109.392 313.737 73.3225 184.457Z" stroke="#222222" stroke-width="1.5"/>
<path d="M95.0379 194.715C65.9005 90.2706 175.602 71.491 255.465 105.112C304.317 123.892 338.647 73.7637 395.647 94.3699C459.474 117.45 392.107 179.698 477.846 215.299C564.653 251.928 528.056 405.115 443.652 406.706C361.692 408.297 384.49 437.024 305.374 492.597C226.259 548.17 97.6432 470.204 127.234 381.329C156.825 299.273 127.63 310.922 95.0379 194.715Z" stroke="#222222" stroke-width="1.5"/>
<path d="M116.754 205.493C91.0706 113.851 188.416 94.3375 259.538 124.613C303.853 142.046 335.765 98.1784 386.265 116.436C445.299 137.786 385.964 191.971 461.389 224.348C538.147 258.009 507.901 395.243 430.146 396.606C355.447 397.97 376.318 424.754 305.174 473.345C234.03 521.937 120.01 453.479 145.374 373.01C170.737 301.065 145.869 308.626 116.754 205.493Z" stroke="#222222" stroke-width="1.5"/>
<path d="M138.47 216.886C116.241 138.047 201.232 117.799 263.61 144.731C303.389 160.816 332.883 123.209 376.883 139.118C431.124 158.738 379.823 204.86 444.932 234.012C511.642 264.705 487.747 385.986 416.641 387.122C349.201 388.258 368.147 413.099 304.974 454.709C241.801 496.318 142.377 437.369 163.514 365.306C184.65 303.473 164.108 306.945 138.47 216.886Z" stroke="#222222" stroke-width="1.5"/>
<path d="M160.186 228.313C141.412 162.276 214.047 141.295 267.684 164.881C302.925 179.619 330.002 148.272 367.502 161.833C416.95 179.723 373.681 217.782 428.475 243.709C485.137 271.435 467.593 376.762 403.136 377.671C342.956 378.58 359.976 401.477 304.775 436.106C249.573 470.734 164.745 421.293 181.654 357.636C198.563 305.914 182.348 305.299 160.186 228.313Z" stroke="#222222" stroke-width="1.5"/>
<path d="M181.904 239.788C166.584 186.555 226.864 164.839 271.758 185.081C302.462 198.471 327.121 173.385 358.121 184.597C402.776 200.757 367.541 230.753 412.02 253.456C458.633 278.213 447.44 367.588 389.632 368.27C336.712 368.952 351.807 389.905 304.576 417.552C257.345 445.198 187.114 405.266 199.796 350.016C212.478 308.404 200.589 303.701 181.904 239.788Z" stroke="#222222" stroke-width="1.5"/>
<path d="M203.622 251.337C191.757 210.906 239.682 188.457 275.834 205.354C302.001 217.396 324.243 198.571 348.743 207.435C388.604 221.865 361.402 243.797 395.566 263.275C432.131 285.065 427.288 358.487 376.129 358.941C330.47 359.396 343.638 378.406 304.379 399.071C265.12 419.735 209.484 389.312 217.939 342.468C226.393 310.968 218.831 302.176 203.622 251.337Z" stroke="#222222" stroke-width="1.5"/>
<path d="M225.345 262.996C216.934 235.368 252.504 212.185 279.913 225.737C301.543 236.431 321.367 223.867 339.367 230.382C374.435 243.082 355.266 256.952 379.115 273.205C405.632 292.027 407.14 349.495 362.63 349.723C324.231 349.95 335.474 367.017 304.185 380.7C272.897 394.383 231.858 373.468 236.085 335.03C240.312 313.641 237.076 300.762 225.345 262.996Z" stroke="#222222" stroke-width="1.5"/>
</svg>
